<?xml version="1.0" encoding="UTF-8" standalone="no"?>
<!-- Created with Inkscape (http://www.inkscape.org/) -->

<svg
   xmlns:dc="http://purl.org/dc/elements/1.1/"
   xmlns:cc="http://creativecommons.org/ns#"
   xmlns:rdf="http://www.w3.org/1999/02/22-rdf-syntax-ns#"
   xmlns:svg="http://www.w3.org/2000/svg"
   xmlns="http://www.w3.org/2000/svg"
   xmlns:sodipodi="http://sodipodi.sourceforge.net/DTD/sodipodi-0.dtd"
   xmlns:inkscape="http://www.inkscape.org/namespaces/inkscape"
   width="210mm"
   height="297mm"
   viewBox="0 0 210 297"
   version="1.1"
   id="svg8"
   inkscape:version="0.92.4 (5da689c313, 2019-01-14)"
   sodipodi:docname="beanstorm.svg">
  <defs
     id="defs2" />
  <sodipodi:namedview
     id="base"
     pagecolor="#ffffff"
     bordercolor="#666666"
     borderopacity="1.0"
     inkscape:pageopacity="0.0"
     inkscape:pageshadow="2"
     inkscape:zoom="0.98994949"
     inkscape:cx="266.59903"
     inkscape:cy="598.13338"
     inkscape:document-units="mm"
     inkscape:current-layer="layer1"
     showgrid="false"
     inkscape:window-width="2560"
     inkscape:window-height="1377"
     inkscape:window-x="-8"
     inkscape:window-y="-8"
     inkscape:window-maximized="1" />
  <metadata
     id="metadata5">
    <rdf:RDF>
      <cc:Work
         rdf:about="">
        <dc:format>image/svg+xml</dc:format>
        <dc:type
           rdf:resource="http://purl.org/dc/dcmitype/StillImage" />
        <dc:title></dc:title>
      </cc:Work>
    </rdf:RDF>
  </metadata>
  <g
     inkscape:label="Layer 1"
     inkscape:groupmode="layer"
     id="layer1">
    <path
       style="opacity:1;fill:none;fill-opacity:1;stroke:#000000;stroke-width:5;stroke-linecap:butt;stroke-linejoin:round;stroke-miterlimit:4;stroke-dasharray:none;stroke-opacity:1"
       d="m 114.67026,42.685305 a 23.386083,23.386083 0 0 0 -19.909371,11.173478 27.929665,27.929665 0 0 0 -7.352,-1.017508 27.929665,27.929665 0 0 0 -27.050548,21.118088 22.317005,22.317005 0 0 0 -16.380912,21.51187 22.317005,22.317005 0 0 0 22.316984,22.316977 22.317005,22.317005 0 0 0 1.668116,-0.0672 h 68.743601 a 25.925144,25.925144 0 0 0 0.95911,0.0481 25.925144,25.925144 0 0 0 25.92503,-25.925027 25.925144,25.925144 0 0 0 -9.85056,-20.30522 20.045215,20.045215 0 0 0 -16.22588,-10.34562 23.386083,23.386083 0 0 0 -22.84357,-18.507918 z"
       id="path4524"
       inkscape:connector-curvature="0" />
    <path
       style="fill:none;stroke:#000000;stroke-width:2;stroke-linecap:butt;stroke-linejoin:miter;stroke-miterlimit:4;stroke-dasharray:none;stroke-opacity:1"
       d="m 142.60311,124.25903 c 3.21847,1.30129 1.98307,5.31138 0.014,7.96694 -3.95108,5.01222 -7.00743,5.00267 -9.06454,2.71936 -2.13992,-4.07127 2.32621,-6.16372 3.55376,-6.04606 0.41712,-0.14699 0.96035,-0.32514 0.95107,-0.92226 -0.022,-1.4178 0.4497,-4.36331 4.54568,-3.71798 z"
       id="path4539"
       inkscape:connector-curvature="0"
       sodipodi:nodetypes="ccccsc" />
    <path
       style="fill:none;stroke:#000000;stroke-width:2;stroke-linecap:butt;stroke-linejoin:miter;stroke-miterlimit:4;stroke-dasharray:none;stroke-opacity:1"
       d="m 121.6684,123.92184 c 3.21847,1.30129 1.98307,5.31138 0.014,7.96694 -3.95108,5.01222 -7.00743,5.00267 -9.06454,2.71936 -2.13992,-4.07127 2.32621,-6.16372 3.55376,-6.04606 0.41712,-0.14699 0.96035,-0.32514 0.95107,-0.92226 -0.022,-1.4178 0.4497,-4.36331 4.54568,-3.71798 z"
       id="path4539-0"
       inkscape:connector-curvature="0"
       sodipodi:nodetypes="ccccsc" />
    <path
       style="fill:none;stroke:#000000;stroke-width:2;stroke-linecap:butt;stroke-linejoin:miter;stroke-miterlimit:4;stroke-dasharray:none;stroke-opacity:1"
       d="m 99.752288,123.65457 c 3.218472,1.30129 1.983072,5.31138 0.014,7.96694 -3.95108,5.01222 -7.00743,5.00267 -9.06454,2.71936 -2.13992,-4.07127 2.32621,-6.16372 3.55376,-6.04606 0.41712,-0.14699 0.96035,-0.32514 0.95107,-0.92226 -0.022,-1.4178 0.4497,-4.36331 4.54568,-3.71798 z"
       id="path4539-8"
       inkscape:connector-curvature="0"
       sodipodi:nodetypes="ccccsc" />
    <path
       style="fill:none;stroke:#000000;stroke-width:2;stroke-linecap:butt;stroke-linejoin:miter;stroke-miterlimit:4;stroke-dasharray:none;stroke-opacity:1"
       d="m 74.628951,124.45638 c 3.21847,1.30129 1.98307,5.31138 0.014,7.96694 -3.951076,5.01222 -7.007426,5.00267 -9.064536,2.71936 -2.13992,-4.07127 2.32621,-6.16372 3.55376,-6.04606 0.41712,-0.14699 0.96035,-0.32514 0.95107,-0.92226 -0.022,-1.4178 0.4497,-4.36331 4.545676,-3.71798 z"
       id="path4539-83"
       inkscape:connector-curvature="0"
       sodipodi:nodetypes="ccccsc" />
    <path
       style="fill:none;stroke:#000000;stroke-width:2;stroke-linecap:butt;stroke-linejoin:miter;stroke-miterlimit:4;stroke-dasharray:none;stroke-opacity:1"
       d="m 128.08286,141.56163 c 3.21847,1.30129 1.98307,5.31138 0.014,7.96694 -3.95108,5.01222 -7.00743,5.00267 -9.06454,2.71936 -2.13992,-4.07127 2.32621,-6.16372 3.55376,-6.04606 0.41712,-0.14699 0.96035,-0.32514 0.95107,-0.92226 -0.022,-1.4178 0.4497,-4.36331 4.54568,-3.71798 z"
       id="path4539-2"
       inkscape:connector-curvature="0"
       sodipodi:nodetypes="ccccsc" />
    <path
       style="fill:none;stroke:#000000;stroke-width:2;stroke-linecap:butt;stroke-linejoin:miter;stroke-miterlimit:4;stroke-dasharray:none;stroke-opacity:1"
       d="m 105.36496,141.82889 c 3.21847,1.30129 1.98307,5.31138 0.014,7.96694 -3.95109,5.01222 -7.007435,5.00267 -9.064545,2.71936 -2.13992,-4.07127 2.32621,-6.16372 3.55376,-6.04606 0.417115,-0.14699 0.960345,-0.32514 0.951065,-0.92226 -0.022,-1.4178 0.4497,-4.36331 4.54569,-3.71798 z"
       id="path4539-04"
       inkscape:connector-curvature="0"
       sodipodi:nodetypes="ccccsc" />
    <path
       style="fill:none;stroke:#000000;stroke-width:2;stroke-linecap:butt;stroke-linejoin:miter;stroke-miterlimit:4;stroke-dasharray:none;stroke-opacity:1"
       d="m 79.707074,140.75982 c 3.21847,1.30129 1.98307,5.31138 0.014,7.96694 -3.95108,5.01222 -7.007428,5.00267 -9.064538,2.71936 -2.13992,-4.07127 2.32621,-6.16372 3.55376,-6.04606 0.41712,-0.14699 0.960348,-0.32514 0.951068,-0.92226 -0.022,-1.4178 0.4497,-4.36331 4.54568,-3.71798 z"
       id="path4539-1"
       inkscape:connector-curvature="0"
       sodipodi:nodetypes="ccccsc" />
    <flowRoot
       xml:space="preserve"
       id="flowRoot4586"
       style="font-style:normal;font-weight:normal;font-size:40px;line-height:1.25;font-family:sans-serif;letter-spacing:0px;word-spacing:0px;fill:#000000;fill-opacity:1;stroke:none"
       transform="matrix(0.37325883,0,0,0.37325883,-23.968379,-33.898624)"><flowRegion
         id="flowRegion4588"><rect
           id="rect4590"
           width="282.84271"
           height="129.29953"
           x="264.65997"
           y="275.00171" /></flowRegion><flowPara
         id="flowPara4592">BEAN</flowPara><flowPara
         id="flowPara4594">STORM</flowPara></flowRoot>    <path
       style="fill:none;stroke:#000000;stroke-width:2;stroke-linecap:butt;stroke-linejoin:miter;stroke-opacity:1;stroke-miterlimit:4;stroke-dasharray:none"
       d="M 71.628232,67.950013 V 105.10048"
       id="path4596"
       inkscape:connector-curvature="0" />
  </g>
</svg>
